<?xml version="1.0" standalone="no"?>
<!DOCTYPE svg PUBLIC "-//W3C//DTD SVG 20010904//EN"
 "http://www.w3.org/TR/2001/REC-SVG-20010904/DTD/svg10.dtd">
<svg version="1.0" xmlns="http://www.w3.org/2000/svg"
 width="640.000000pt" height="640.000000pt" viewBox="0 0 640.000000 640.000000"
 preserveAspectRatio="xMidYMid meet">
<metadata>
Created by potrace 1.11, written by Peter Selinger 2001-2013
</metadata>
<g transform="translate(0.000000,640.000000) scale(0.100000,-0.100000)"
fill="#000000" stroke="none">
<path d="M3788 6134 c-3 -3 -32 -6 -65 -8 -32 -1 -65 -6 -72 -11 -10 -5 -12
-4 -7 3 9 16 -7 15 -22 0 -9 -9 -12 -9 -12 1 0 10 -3 11 -14 2 -7 -6 -21 -9
-30 -5 -9 4 -16 1 -16 -6 0 -9 -4 -9 -13 -2 -8 7 -18 7 -27 2 -8 -6 -29 -10
-46 -10 -17 0 -34 -3 -38 -7 -4 -4 -21 -9 -39 -10 -51 -4 -57 -6 -57 -15 0 -5
-4 -7 -9 -4 -5 3 -20 -3 -34 -14 -14 -11 -30 -20 -36 -20 -6 0 -11 -4 -11 -10
0 -5 -6 -10 -13 -10 -13 0 -44 -21 -77 -52 -10 -9 -21 -14 -24 -10 -3 3 -6 -2
-6 -12 0 -9 -4 -15 -8 -12 -10 6 -42 -29 -42 -45 0 -5 -4 -7 -10 -4 -5 3 -10
2 -10 -3 0 -16 -106 -115 -126 -118 -10 -2 -25 3 -33 9 -12 9 -13 9 -7 0 5 -9
-1 -12 -23 -9 -17 2 -31 1 -31 -3 0 -3 -21 -6 -47 -5 -27 1 -51 -4 -55 -10 -6
-8 -11 -6 -18 4 -9 13 -10 13 -10 0 0 -13 -1 -13 -10 0 -6 9 -10 11 -10 3 0
-7 -7 -10 -15 -7 -8 4 -15 2 -15 -4 0 -5 -12 -8 -27 -6 -15 1 -33 -2 -39 -7
-19 -16 -57 -20 -51 -6 3 9 -8 13 -39 12 -24 0 -44 -4 -44 -9 0 -5 -7 -3 -15
4 -8 7 -15 8 -15 3 0 -5 -23 -10 -52 -12 -28 -1 -56 -5 -61 -8 -6 -3 -26 -8
-46 -10 -19 -2 -38 -7 -41 -11 -7 -10 -32 -8 -49 2 -9 6 -12 5 -8 -1 4 -6 -5
-13 -21 -16 -15 -3 -38 -8 -52 -11 -14 -3 -37 -8 -53 -12 -15 -3 -25 -9 -22
-13 2 -5 -6 -6 -18 -4 -14 3 -29 -2 -36 -11 -11 -12 -17 -14 -27 -5 -11 9 -14
8 -14 0 0 -7 -4 -9 -10 -6 -5 3 -10 2 -10 -4 0 -5 -11 -8 -25 -7 -13 2 -22 0
-20 -4 3 -4 -11 -11 -30 -14 -19 -4 -35 -12 -35 -19 0 -8 -3 -8 -9 1 -7 11 -9
10 -15 -3 -3 -9 -10 -13 -16 -10 -5 3 -10 0 -10 -7 0 -9 -3 -9 -10 2 -5 8 -10
10 -10 5 0 -12 -57 -38 -82 -38 -10 0 -15 -4 -12 -8 3 -5 -4 -9 -16 -9 -11 0
-23 -6 -26 -14 -3 -8 -14 -13 -25 -11 -12 2 -19 -2 -19 -11 0 -8 -4 -13 -9
-10 -13 8 -93 -39 -84 -49 5 -4 3 -5 -3 -2 -13 7 -86 -30 -97 -49 -5 -8 -12
-12 -17 -9 -4 3 -11 -2 -14 -11 -3 -8 -11 -12 -17 -8 -7 4 -9 3 -5 -4 3 -6 -7
-18 -23 -28 -17 -10 -29 -20 -27 -23 2 -3 -5 -14 -16 -23 -10 -10 -18 -16 -18
-13 0 2 -35 -30 -77 -73 -43 -42 -77 -80 -75 -84 1 -5 -4 -8 -11 -8 -8 0 -19
-11 -25 -25 -7 -14 -19 -28 -27 -31 -8 -4 -15 -10 -15 -15 0 -5 -15 -23 -34
-39 -18 -17 -39 -43 -46 -60 -7 -16 -16 -30 -20 -30 -5 0 -14 -16 -20 -35 -6
-19 -16 -33 -21 -30 -5 4 -6 -1 -3 -9 3 -9 1 -16 -5 -16 -6 0 -10 -3 -10 -7 3
-19 -2 -34 -9 -29 -5 3 -9 -1 -10 -9 -1 -8 -3 -22 -4 -30 -1 -8 -6 -15 -11
-15 -5 0 -7 -9 -4 -20 3 -13 1 -18 -6 -13 -7 4 -8 0 -4 -11 4 -9 3 -15 -2 -12
-11 7 -23 -22 -15 -35 3 -5 0 -9 -5 -9 -6 0 -11 -9 -11 -20 0 -11 -4 -20 -9
-20 -6 0 -8 -9 -6 -20 2 -11 0 -20 -6 -20 -5 0 -8 -3 -7 -7 3 -17 -15 -63 -26
-63 -6 0 -4 -5 4 -10 12 -7 12 -10 1 -10 -7 0 -11 -6 -7 -15 3 -8 2 -15 -3
-15 -8 0 -30 -77 -35 -122 -1 -14 -7 -32 -13 -40 -6 -7 -9 -21 -8 -30 2 -10
-1 -18 -7 -18 -6 0 -8 -7 -4 -15 3 -8 0 -15 -7 -15 -8 0 -6 -4 3 -10 11 -7 11
-10 2 -10 -7 0 -11 -4 -7 -9 3 -5 1 -12 -4 -15 -5 -4 -8 -17 -6 -31 1 -14 -2
-25 -7 -25 -5 0 -6 -4 -3 -10 3 -5 0 -10 -7 -10 -9 0 -9 -3 2 -10 8 -5 11 -10
5 -10 -5 0 -11 -16 -12 -36 -1 -20 -7 -42 -14 -50 -9 -11 -9 -14 1 -14 9 0 9
-4 3 -12 -6 -7 -10 -25 -9 -40 1 -14 -1 -25 -5 -23 -3 2 -7 -10 -8 -28 -4 -56
-7 -76 -14 -83 -4 -4 -2 -13 4 -21 8 -9 8 -13 1 -13 -6 0 -9 -11 -6 -26 3 -16
1 -23 -6 -19 -13 8 -9 -17 5 -27 6 -5 5 -8 -2 -8 -8 0 -11 -13 -9 -35 1 -19 0
-35 -3 -35 -3 0 -6 -19 -5 -42 1 -24 -3 -48 -8 -55 -5 -7 -5 -14 1 -17 5 -3 7
-21 3 -39 -3 -17 -6 -44 -6 -59 -1 -16 -4 -28 -8 -28 -4 0 -4 -7 -1 -17 4 -11
3 -14 -5 -9 -9 5 -9 1 -3 -17 6 -14 7 -27 5 -30 -7 -6 -14 -49 -17 -102 -1
-22 -6 -46 -10 -52 -5 -7 -4 -13 0 -13 5 0 9 -9 9 -20 0 -11 -4 -20 -8 -20
-10 0 -6 -30 6 -49 7 -10 6 -12 -4 -6 -10 6 -12 0 -8 -24 3 -18 0 -31 -6 -31
-7 0 -6 -3 1 -8 8 -5 9 -13 3 -22 -5 -8 -5 -21 1 -32 5 -10 6 -18 1 -18 -13 0
-1 -287 13 -310 5 -9 4 -11 -4 -6 -9 6 -10 0 -5 -21 4 -15 11 -33 15 -39 5 -6
6 -14 2 -17 -3 -4 -1 -7 5 -7 7 0 12 -7 12 -16 0 -8 5 -12 10 -9 6 3 10 -2 10
-13 0 -10 9 -28 19 -39 11 -12 17 -24 14 -27 -4 -3 -1 -6 6 -6 7 0 9 -4 6 -10
-3 -5 -2 -10 4 -10 5 0 18 -14 28 -30 9 -17 22 -29 28 -27 15 6 45 -32 38 -49
-3 -8 0 -14 7 -14 6 0 9 -4 5 -9 -3 -5 0 -13 6 -17 8 -5 8 -8 0 -13 -7 -5 -5
-13 7 -27 10 -10 19 -21 19 -24 6 -24 24 -59 33 -65 5 -3 8 -11 5 -16 -4 -5
-1 -9 5 -9 7 0 10 -17 9 -45 -2 -25 -8 -45 -13 -45 -7 0 -7 -3 0 -8 12 -7 12
-47 1 -58 -4 -4 -2 -13 4 -20 6 -7 11 -26 11 -43 1 -17 6 -31 12 -31 6 0 4 -5
-4 -10 -10 -6 -11 -10 -3 -10 7 0 12 -3 12 -8 -4 -22 2 -63 9 -59 4 3 8 -11 8
-30 1 -19 5 -38 10 -42 11 -7 17 -28 18 -58 1 -11 4 -19 9 -16 4 2 7 -5 7 -15
0 -11 7 -25 15 -32 8 -7 12 -16 9 -21 -3 -5 -2 -9 3 -9 4 0 15 -15 22 -33 8
-17 35 -61 59 -97 25 -36 45 -71 45 -77 0 -7 6 -13 13 -13 8 0 16 -11 20 -24
3 -15 15 -27 30 -30 13 -4 24 -11 24 -17 0 -6 4 -8 9 -4 5 3 12 -4 16 -15 3
-11 12 -20 18 -20 7 0 24 -11 39 -25 29 -27 44 -33 32 -12 -5 8 -2 7 9 -2 10
-8 29 -15 43 -17 21 -2 23 0 13 12 -6 8 -8 14 -3 14 5 0 -2 7 -14 16 -12 8
-22 20 -22 25 0 5 -9 19 -20 31 -11 12 -20 28 -20 35 0 7 -6 13 -12 13 -7 0
-14 12 -15 26 0 15 -5 29 -11 33 -5 3 -8 14 -6 24 1 11 0 16 -4 13 -6 -7 -32
60 -32 87 0 9 -4 17 -9 17 -4 0 -8 12 -7 28 0 17 -4 26 -12 24 -10 -2 -10 2
-1 19 8 17 8 23 -1 29 -7 5 -10 15 -7 23 3 9 -1 18 -10 21 -11 5 -13 10 -4 20
6 7 8 15 5 18 -2 3 2 8 11 11 8 4 15 2 15 -4 0 -5 14 -23 31 -40 17 -17 32
-41 33 -55 0 -13 3 -24 6 -24 5 0 10 -23 13 -62 1 -10 4 -18 8 -18 4 0 12 -15
18 -32 19 -55 36 -88 43 -88 5 0 8 -7 8 -15 0 -15 17 -40 58 -82 12 -13 22
-28 22 -33 0 -6 4 -10 9 -10 5 0 30 -20 55 -45 26 -25 56 -45 67 -45 10 0 19
-3 19 -7 0 -5 27 -9 60 -10 34 -1 59 1 56 6 -3 4 5 6 18 4 13 -3 30 2 39 12
10 9 17 12 17 6 0 -5 18 -2 39 7 22 9 37 20 35 23 -2 4 10 12 26 19 27 11 34
21 31 42 0 4 9 4 22 -1 35 -13 49 -3 26 20 -10 10 -23 19 -29 19 -5 0 -11 5
-11 10 -1 6 -2 15 -3 21 0 7 -9 15 -18 18 -10 3 -31 27 -47 54 -17 26 -36 47
-43 47 -9 0 -8 3 2 10 10 6 11 10 3 10 -7 0 -13 7 -13 16 0 9 -5 12 -12 8 -8
-5 -9 -2 -5 9 3 10 3 17 -1 17 -4 0 -15 16 -24 35 -8 19 -11 32 -6 29 4 -3 -1
11 -12 31 -11 20 -16 34 -10 30 6 -3 7 0 4 9 -3 9 -10 14 -14 11 -5 -3 -6 4
-3 15 3 11 1 20 -4 20 -18 0 -10 26 9 27 10 1 18 -2 18 -6 0 -8 7 -9 55 -12
14 -1 25 -4 26 -8 1 -3 2 -26 3 -51 2 -25 7 -56 13 -70 6 -14 9 -28 6 -32 -2
-5 1 -8 6 -8 6 0 11 -6 11 -12 0 -17 62 -142 72 -146 4 -2 8 -10 8 -18 0 -8 6
-17 14 -20 8 -3 16 -15 19 -26 3 -11 10 -17 16 -13 6 3 11 1 11 -5 0 -14 17
-31 50 -52 33 -21 119 -17 185 8 28 11 52 21 55 24 3 3 20 6 38 5 17 0 32 4
32 9 0 4 6 6 14 3 8 -3 17 1 20 9 3 9 10 12 16 9 5 -3 10 -1 10 6 0 7 3 10 6
6 3 -3 11 -1 18 4 51 42 61 49 64 40 2 -7 11 -6 26 1 18 8 29 6 50 -7 14 -10
26 -14 26 -9 0 4 7 -1 15 -12 8 -11 14 -14 15 -6 0 9 5 10 18 4 15 -8 40 -9
67 -2 6 1 19 2 30 1 18 -1 19 -2 2 -12 -13 -8 -15 -14 -7 -29 6 -11 6 -21 1
-24 -5 -4 -8 -17 -6 -31 1 -14 -2 -25 -6 -25 -5 0 -9 -5 -9 -11 0 -5 5 -7 11
-3 6 3 3 -5 -6 -19 -9 -15 -14 -30 -12 -35 3 -4 -2 -13 -12 -19 -15 -10 -20
-8 -28 10 -5 12 -8 43 -7 69 2 44 1 46 -27 50 -16 3 -29 1 -29 -4 0 -5 -9 -4
-20 2 -15 8 -20 8 -20 -2 0 -9 -3 -9 -12 0 -13 13 -32 17 -24 4 2 -4 -16 -7
-40 -6 -24 1 -44 -2 -44 -7 0 -5 -7 -9 -16 -9 -8 0 -12 -5 -9 -10 3 -5 2 -10
-3 -10 -5 0 -12 -10 -16 -23 -5 -17 -8 -19 -15 -8 -6 9 -11 10 -15 2 -4 -6
-16 -11 -26 -11 -10 0 -20 -5 -22 -10 -2 -6 -13 -12 -26 -13 -12 0 -22 -5 -22
-9 0 -4 -7 -5 -15 -2 -8 4 -15 2 -15 -3 0 -5 -10 -9 -21 -10 -12 -1 -30 -10
-40 -19 -11 -9 -19 -14 -19 -10 0 4 -15 -4 -33 -18 -19 -14 -37 -23 -40 -19
-4 3 -7 1 -7 -5 0 -7 -7 -12 -16 -12 -9 0 -12 -5 -8 -11 4 -7 1 -10 -7 -7 -12
4 -31 -7 -65 -40 -8 -7 -14 -11 -14 -8 0 3 -9 -2 -19 -11 -42 -39 -56 -48 -66
-45 -5 2 -7 1 -3 -3 9 -9 -33 -56 -44 -49 -4 3 -8 -2 -8 -11 0 -9 -4 -13 -10
-10 -5 3 -10 1 -10 -4 0 -6 -7 -11 -16 -11 -10 0 -14 -5 -10 -16 3 -8 2 -13
-3 -9 -5 3 -16 -2 -25 -10 -8 -9 -18 -14 -21 -13 -7 4 -65 -35 -65 -44 0 -5
-6 -8 -13 -8 -7 0 -25 -11 -40 -25 -15 -14 -27 -22 -27 -18 0 4 -4 3 -8 -3 -4
-6 -23 -19 -42 -29 -19 -9 -44 -25 -54 -34 -16 -13 -18 -13 -11 -1 6 11 3 10
-12 -3 -11 -9 -23 -14 -26 -10 -4 3 -7 0 -7 -7 0 -7 -3 -11 -6 -8 -3 4 -20 0
-39 -7 -18 -8 -36 -11 -40 -7 -5 4 -5 1 -1 -5 4 -7 2 -13 -3 -13 -6 0 -14 0
-18 -1 -17 -2 -70 -35 -102 -64 -19 -16 -31 -23 -27 -15 7 13 6 13 -6 0 -19
-22 -82 -65 -73 -50 4 7 -6 2 -23 -10 -17 -13 -29 -27 -27 -31 3 -4 -4 -5 -15
-2 -11 3 -20 0 -20 -6 0 -6 -5 -11 -10 -11 -6 0 -20 -9 -32 -20 -12 -10 -25
-17 -30 -14 -4 3 -8 0 -8 -6 0 -6 -4 -9 -9 -6 -5 3 -11 -1 -15 -9 -3 -8 -10
-15 -15 -15 -6 0 -39 -20 -74 -45 -36 -25 -67 -45 -71 -45 -6 0 -36 -23 -61
-47 -7 -7 -14 -11 -16 -9 -2 1 -12 -6 -22 -16 -17 -18 -2 -18 525 -18 498 1
544 2 562 18 14 13 17 13 11 2 -6 -11 -3 -10 12 2 11 10 25 18 31 18 7 0 12 4
12 8 0 5 18 15 40 22 22 7 40 17 40 22 0 5 5 6 10 3 6 -3 17 1 26 9 8 9 22 16
30 16 8 0 14 5 14 10 0 6 5 10 11 10 7 0 18 8 26 18 8 9 11 10 7 3 -5 -10 3
-8 22 6 16 11 46 27 68 34 21 8 41 20 43 26 3 7 10 13 15 13 13 0 58 47 52 53
-3 3 2 7 11 11 10 3 14 2 10 -5 -6 -9 -13 -41 -17 -76 -1 -7 -5 -13 -9 -13 -4
0 -5 -10 -1 -22 3 -13 1 -19 -6 -15 -11 8 -11 -11 1 -30 4 -6 3 -15 -3 -18 -8
-5 -7 -11 1 -21 9 -11 9 -14 -1 -14 -8 0 -11 -9 -8 -25 3 -13 1 -22 -3 -19 -5
3 -9 2 -10 -3 0 -4 -2 -16 -4 -25 -3 -17 41 -18 822 -18 733 0 824 2 813 15
-7 8 -9 15 -5 15 4 0 2 6 -4 13 -6 8 -8 17 -4 20 3 4 2 7 -4 7 -6 0 -9 9 -6
20 3 11 0 20 -6 20 -6 0 -10 3 -9 8 3 12 -25 95 -40 119 -8 13 -13 23 -11 24
30 6 38 6 34 0 -5 -9 40 -51 55 -51 6 0 10 -4 10 -10 0 -5 6 -9 13 -7 6 1 11
-4 10 -10 -2 -7 3 -13 11 -13 8 0 22 -7 30 -16 9 -8 16 -13 16 -9 0 4 7 -1 16
-9 8 -9 19 -14 23 -12 4 3 14 -4 21 -15 8 -10 18 -19 22 -19 5 0 26 -11 48
-25 22 -14 40 -22 40 -18 0 5 4 4 8 -2 12 -17 52 -36 62 -30 6 4 10 1 10 -4 0
-8 226 -11 740 -11 l740 0 0 21 c0 13 -4 18 -12 13 -8 -5 -8 -1 2 12 8 10 11
16 6 12 -4 -4 -17 2 -29 13 -11 10 -33 25 -49 31 -15 7 -28 16 -28 20 0 4 -6
5 -14 2 -7 -3 -20 2 -29 10 -9 9 -20 16 -25 16 -6 0 -35 13 -66 30 -31 16 -54
24 -50 17 4 -7 -1 -5 -12 4 -18 15 -50 31 -66 33 -3 1 -10 4 -14 9 -4 4 -16 7
-26 7 -10 0 -18 4 -18 8 0 4 -10 8 -22 9 -11 1 -24 6 -27 10 -3 4 -13 10 -21
11 -8 2 -22 6 -30 8 -72 18 -88 21 -103 18 -9 -1 -17 2 -17 7 0 6 -4 8 -9 4
-5 -3 -12 -1 -16 5 -4 6 -11 8 -16 4 -5 -3 -20 1 -32 9 -12 8 -30 13 -39 11
-10 -1 -18 2 -18 7 0 5 -9 9 -19 9 -11 0 -23 5 -26 11 -4 6 -13 8 -21 5 -8 -3
-14 0 -14 6 0 6 -3 9 -6 5 -4 -3 -19 0 -34 8 -15 8 -30 11 -34 8 -3 -4 -6 -1
-6 5 0 7 -12 12 -26 12 -17 0 -23 4 -18 12 5 8 2 9 -9 5 -9 -3 -22 0 -29 7 -7
7 -19 11 -26 8 -6 -2 -12 2 -12 9 0 7 -3 9 -7 6 -3 -4 -13 -1 -21 6 -13 10
-14 9 -7 -3 5 -9 0 -8 -13 4 -12 11 -22 16 -22 11 0 -4 -7 -1 -16 6 -9 8 -22
14 -28 15 -6 0 -17 2 -24 2 -7 1 -11 6 -8 11 4 5 -3 7 -14 4 -11 -3 -20 -1
-20 4 0 5 -6 10 -12 11 -21 1 -89 28 -84 33 2 2 -9 5 -25 6 -48 3 -59 6 -59
15 0 5 -4 6 -10 3 -5 -3 -10 -1 -10 5 0 6 -5 8 -10 5 -6 -3 -10 -1 -10 4 0 6
-5 11 -11 11 -5 0 -7 -6 -4 -12 4 -7 0 -5 -8 4 -8 10 -17 15 -20 11 -4 -3 -7
-1 -7 5 0 7 -3 11 -7 10 -10 -2 -106 44 -114 54 -3 5 -15 10 -27 11 -11 0 -18
5 -16 9 3 4 -2 8 -10 8 -9 0 -16 5 -16 10 0 6 -7 10 -16 10 -8 0 -22 6 -29 12
-35 31 -45 38 -45 31 0 -4 -5 0 -11 10 -5 9 -15 17 -20 17 -6 0 -17 6 -24 12
-26 23 -41 33 -55 36 -8 2 -17 7 -20 11 -5 8 -37 22 -59 27 -8 1 -17 6 -20 11
-3 4 -13 9 -21 11 -31 6 -80 33 -81 45 -4 41 -18 77 -30 77 -5 0 -9 9 -9 21 0
11 -4 17 -10 14 -5 -3 -10 -1 -10 5 0 6 -4 9 -9 5 -5 -3 -12 -1 -15 3 -3 5
-17 8 -31 7 -14 -2 -25 0 -25 5 0 9 -54 4 -80 -7 -8 -3 -18 -7 -22 -7 -5 -1
-8 -4 -8 -9 0 -4 -11 -19 -25 -33 -15 -15 -24 -32 -22 -38 11 -27 -21 -11 -42
22 -12 19 -18 31 -12 28 5 -4 4 6 -4 21 -7 16 -13 43 -11 60 1 18 -2 33 -6 33
-5 0 -4 9 2 20 9 17 20 20 78 18 38 -1 73 2 80 6 7 4 12 2 12 -4 0 -7 5 -8 13
-3 6 4 21 8 32 9 11 0 43 11 72 25 l51 25 -9 -23 c-6 -16 -5 -23 4 -23 6 0 3
-7 -7 -15 -17 -13 -17 -15 -3 -15 10 0 14 -5 11 -14 -4 -11 13 -13 98 -10 57
2 117 6 133 9 17 4 40 7 53 8 12 0 22 4 22 8 0 4 8 6 18 4 9 -1 23 2 30 8 6 5
12 7 12 3 0 -4 10 0 23 9 13 8 27 12 30 8 4 -3 7 -1 7 5 0 7 7 12 15 12 8 0
23 9 32 20 13 14 20 17 30 8 8 -6 13 -7 13 0 0 13 51 13 68 0 6 -6 12 -8 12
-4 0 3 15 0 33 -7 38 -16 121 -22 139 -11 7 5 36 10 63 12 28 2 61 11 75 19
29 17 71 78 73 105 1 10 4 18 8 18 9 0 34 71 31 88 -2 6 2 12 9 12 6 0 9 8 6
20 -3 11 -1 20 5 20 5 0 6 5 3 10 -3 6 -1 10 6 10 8 0 9 3 0 13 -6 8 -8 17 -4
21 4 3 8 12 9 19 1 7 5 32 9 57 4 24 9 48 11 52 3 4 6 27 8 52 2 25 8 50 12
57 13 21 10 151 -3 165 -9 9 -8 15 7 29 18 16 18 16 13 -15 -3 -25 -2 -30 9
-24 10 6 11 4 2 -7 -6 -8 -10 -41 -9 -74 1 -33 -2 -69 -6 -81 -9 -27 7 -57 17
-31 16 42 23 10 18 -81 -3 -53 -7 -113 -7 -132 -1 -19 -6 -38 -12 -42 -6 -5
-4 -8 5 -8 13 0 13 -2 1 -9 -13 -8 -13 -12 0 -27 9 -11 9 -15 2 -10 -9 5 -13
-1 -14 -21 -3 -52 -6 -78 -12 -93 -4 -8 -9 -26 -11 -40 -3 -14 -5 -25 -6 -25
-1 0 -3 -9 -5 -20 -6 -36 -10 -50 -18 -62 -5 -7 -6 -13 -3 -13 3 0 -3 -9 -14
-20 -11 -11 -22 -19 -25 -17 -3 2 -55 -62 -55 -69 0 -1 11 -1 25 -1 14 0 25 4
25 9 0 6 7 8 15 4 8 -3 15 -1 15 5 0 5 10 14 23 20 12 6 31 23 42 39 10 15 25
26 32 23 8 -3 13 3 13 16 0 12 6 21 15 21 8 0 15 5 15 10 0 6 8 18 18 28 32
34 63 77 79 110 8 17 19 32 24 32 5 0 9 9 9 20 0 11 5 20 10 20 6 0 10 7 10
15 0 8 4 23 9 33 11 21 34 74 37 85 1 4 3 9 4 12 1 3 4 10 5 15 1 6 4 12 5 15
1 3 4 10 5 15 1 6 4 13 5 18 1 4 3 12 4 17 6 39 31 123 40 134 9 12 8 13 -4 6
-12 -7 -13 -6 -3 7 7 8 10 18 6 21 -3 4 -1 7 5 7 6 0 11 12 12 28 3 87 6 110
12 106 4 -2 10 1 14 7 3 6 0 15 -7 20 -11 7 -11 9 -1 9 7 0 10 5 6 12 -4 7 -3
8 5 4 6 -4 9 -12 6 -17 -4 -5 -1 -9 5 -9 6 0 8 -4 5 -10 -10 -16 -15 -50 -7
-50 4 0 8 -22 9 -50 1 -27 7 -58 13 -70 6 -11 7 -20 2 -20 -12 0 -11 -33 0
-41 6 -4 11 -33 12 -66 2 -33 7 -66 12 -74 4 -8 7 -24 5 -37 -1 -13 3 -30 11
-39 9 -12 10 -15 1 -9 -7 4 -13 2 -13 -3 0 -6 5 -11 12 -11 6 0 8 -3 5 -7 -4
-3 -2 -12 4 -20 8 -9 8 -13 0 -13 -7 0 -8 -8 0 -27 6 -16 13 -39 15 -53 5 -32
12 -65 14 -65 2 0 10 -36 12 -57 1 -10 6 -18 10 -18 4 0 8 -13 8 -30 0 -16 4
-30 8 -30 5 0 9 -7 10 -15 1 -8 3 -22 4 -30 1 -8 5 -15 10 -15 5 0 6 -5 3 -10
-3 -6 -1 -10 5 -10 6 0 8 -4 5 -10 -3 -5 -2 -10 2 -10 5 0 10 -12 11 -27 1
-16 7 -30 12 -31 6 -2 8 -8 4 -13 -3 -5 0 -9 6 -9 6 0 8 -5 5 -10 -4 -6 -2
-17 4 -24 6 -7 12 -21 14 -32 2 -10 9 -29 15 -41 7 -13 9 -23 5 -23 -4 0 -3
-4 3 -8 6 -4 19 -23 29 -42 18 -36 96 -141 128 -173 10 -10 22 -15 27 -12 6 4
10 0 10 -8 0 -14 27 -32 43 -29 4 1 7 -3 7 -8 0 -11 38 -28 71 -33 10 -2 22
-6 25 -10 4 -4 13 -2 21 4 9 9 13 8 13 0 0 -7 11 -10 28 -7 15 2 33 5 40 5 7
1 11 5 8 9 -3 5 8 8 24 7 18 -1 30 3 30 10 0 7 7 12 16 11 9 0 18 7 20 17 2
13 -2 17 -12 13 -8 -3 -14 -1 -14 5 0 6 -4 8 -10 4 -5 -3 -17 -2 -27 3 -10 6
-31 16 -48 23 -34 16 -88 66 -98 92 -3 9 -11 17 -18 17 -6 0 -9 7 -5 15 3 8 1
15 -4 15 -6 0 -10 7 -10 15 0 8 -5 15 -11 15 -5 0 -8 4 -4 9 3 5 -2 16 -11 25
-8 9 -12 21 -9 27 4 5 -1 20 -12 31 -12 14 -13 18 -3 13 12 -7 13 -6 3 7 -7 8
-14 27 -15 42 -1 14 -6 26 -10 26 -4 0 -7 3 -7 8 5 32 -3 82 -12 76 -8 -4 -8
0 0 15 10 18 14 19 31 8 11 -6 20 -14 20 -17 0 -5 19 -9 58 -12 6 -1 12 -4 12
-8 0 -4 6 -7 13 -7 6 -1 35 -2 62 -3 59 -3 78 -12 113 -52 15 -16 35 -39 45
-49 11 -13 13 -19 5 -19 -8 0 -6 -5 4 -10 10 -6 15 -19 13 -30 -2 -12 0 -18 6
-14 6 4 8 -13 5 -48 -3 -29 -10 -54 -16 -56 -5 -2 -7 -8 -4 -13 3 -6 0 -16 -6
-24 -10 -12 -10 -15 1 -15 11 0 11 -2 -1 -10 -8 -5 -11 -10 -7 -10 5 0 1 -7
-7 -16 -21 -21 -22 -57 -1 -60 6 -1 15 -3 20 -5 25 -6 88 38 78 54 -3 6 -1 7
6 3 12 -8 58 41 53 57 -1 4 5 10 13 13 8 4 15 15 15 26 0 10 4 17 9 14 9 -6
24 30 22 52 -1 6 3 12 10 12 8 0 7 5 -2 17 -12 14 -12 16 0 8 10 -6 13 -4 9 6
-3 8 -2 23 2 34 4 11 3 30 -1 43 -6 15 -5 21 1 17 6 -3 10 -2 10 4 0 5 -5 13
-10 16 -6 4 -8 11 -4 16 3 5 0 17 -8 26 -11 14 -11 16 1 9 9 -6 8 -1 -3 16
-14 21 -14 25 -1 25 8 0 12 -4 9 -8 -2 -4 5 -10 16 -14 11 -3 20 -12 20 -19 0
-7 12 -27 28 -44 51 -57 55 -64 56 -108 0 -24 5 -44 11 -44 7 0 7 -3 0 -8 -5
-4 -11 -16 -12 -27 -2 -24 -10 -74 -15 -95 -2 -8 -10 -21 -18 -28 -9 -8 -10
-11 -2 -7 11 6 11 3 0 -16 -7 -13 -18 -31 -25 -39 -6 -8 -12 -19 -12 -25 -2
-23 -13 -45 -22 -45 -6 0 -7 -5 -4 -10 3 -6 -1 -13 -9 -16 -9 -3 -14 -9 -11
-13 2 -4 -5 -14 -16 -21 -10 -8 -19 -19 -19 -25 0 -6 -9 -17 -20 -25 -11 -8
-20 -19 -20 -24 0 -12 -47 -55 -54 -49 -3 3 -13 -2 -22 -12 -16 -16 -16 -17
12 -14 16 2 37 10 47 18 16 13 17 13 12 -1 -4 -9 -2 -19 4 -23 6 -3 11 -1 11
6 0 8 4 8 13 1 6 -5 23 -7 37 -4 14 3 37 6 53 6 15 1 27 5 27 9 0 5 5 5 10 2
6 -3 10 -1 10 5 0 6 5 8 10 5 6 -3 10 -1 10 5 0 6 5 8 10 5 6 -3 10 -1 10 4 0
6 6 11 13 11 7 0 23 9 35 20 12 11 26 20 31 20 12 0 101 89 101 100 0 5 3 10
8 12 14 6 53 69 55 88 1 11 4 20 7 20 4 0 6 10 5 22 -1 13 2 29 8 36 6 8 6 12
-3 12 -10 0 -10 3 0 15 10 12 10 15 -1 15 -12 0 -12 2 0 9 9 6 10 10 2 16 -9
5 -9 11 0 22 10 12 10 16 -2 24 -12 7 -12 9 1 9 9 0 11 3 5 8 -10 7 -16 38
-16 80 1 12 -3 22 -9 22 -5 0 -7 9 -5 20 2 11 -1 20 -7 20 -5 0 -8 7 -4 15 3
8 1 15 -4 15 -6 0 -10 8 -10 18 0 10 -7 27 -15 38 -8 12 -11 24 -8 28 3 3 1 6
-6 6 -7 0 -9 4 -6 10 3 5 2 10 -3 10 -6 0 -13 11 -16 25 -4 14 -10 24 -14 21
-4 -2 -18 14 -31 35 -14 21 -33 41 -43 45 -10 3 -18 9 -18 14 0 9 -40 25 -53
22 -5 -1 -6 2 -2 8 3 5 1 10 -5 10 -9 0 -23 11 -70 55 -37 35 -90 97 -90 106
0 5 -11 22 -25 37 -14 15 -32 41 -40 59 -9 18 -20 35 -25 38 -6 3 -10 15 -10
26 0 10 -5 19 -12 19 -6 0 -9 3 -5 6 3 3 -5 26 -19 51 -13 25 -22 49 -19 53 3
4 -2 11 -11 14 -9 4 -14 13 -10 21 3 8 1 15 -5 15 -6 0 -8 7 -5 16 3 8 2 12
-4 9 -9 -5 -12 1 -9 21 0 3 -8 12 -18 20 -14 11 -15 13 -3 14 12 1 11 3 -3 14
-10 8 -18 17 -18 20 4 31 -1 46 -11 40 -8 -5 -9 -2 -5 9 3 9 1 20 -6 24 -7 5
-12 14 -13 21 -3 37 -5 43 -12 38 -8 -5 -12 14 -15 66 -1 16 -6 28 -10 28 -5
0 -6 4 -2 9 3 5 1 12 -4 16 -6 3 -8 12 -4 20 3 8 1 15 -4 15 -6 0 -10 12 -9
28 1 15 -4 33 -11 40 -6 7 -10 21 -8 32 2 11 0 20 -5 20 -5 0 -7 9 -5 20 2 11
0 20 -5 20 -4 0 -7 11 -5 25 1 14 -1 28 -5 30 -5 3 -7 16 -5 30 1 14 -1 25 -4
25 -4 0 -7 8 -7 18 -2 63 -9 108 -18 114 -6 4 -4 13 5 24 12 16 12 17 -1 9
-13 -8 -13 -7 -1 8 12 15 9 21 -9 19 -3 0 -6 8 -6 19 0 10 4 19 9 19 6 0 6 5
0 13 -5 6 -9 19 -8 27 1 8 -3 23 -8 34 -6 13 -6 16 2 12 12 -8 15 6 4 18 -4 3
-8 19 -9 34 -1 15 -3 48 -5 75 -1 26 -8 47 -13 47 -6 0 -4 5 4 11 12 8 12 12
2 16 -10 4 -10 8 -1 19 8 10 8 14 0 14 -13 0 -10 22 4 32 7 5 7 8 0 8 -19 0
-6 146 15 175 4 6 8 17 8 25 4 69 6 79 16 73 6 -3 6 0 -1 7 -8 9 -9 19 -2 32
7 13 6 18 -3 18 -10 0 -10 3 1 9 8 5 11 16 8 25 -4 9 -2 16 2 16 5 0 8 8 6 18
-1 9 1 24 6 33 5 10 3 21 -4 29 -9 10 -9 11 1 6 8 -5 12 0 12 16 0 13 6 30 13
37 10 11 9 12 -3 6 -12 -7 -13 -6 -3 6 6 8 13 28 16 46 3 17 8 37 13 44 5 8 3
9 -6 4 -10 -6 -11 -4 -4 6 5 8 9 22 10 32 1 9 3 18 4 20 1 1 3 14 4 28 2 14 6
31 10 37 4 7 2 12 -6 12 -8 0 -9 3 -3 8 6 4 10 39 10 77 0 39 2 79 6 90 3 10
3 34 -1 52 -6 22 -4 33 4 33 6 0 4 5 -4 10 -8 5 -10 10 -4 10 7 0 8 17 4 50
-3 27 -5 58 -3 70 1 11 -2 20 -8 20 -8 0 -8 5 1 15 10 12 10 15 -1 15 -11 0
-11 2 1 10 13 9 7 14 -12 11 -4 0 -3 10 2 24 5 14 6 25 1 25 -5 0 -7 9 -4 20
3 11 1 20 -4 20 -7 0 -13 27 -16 78 0 6 -4 12 -8 12 -4 0 -6 9 -4 20 2 11 0
22 -5 25 -5 3 -7 12 -3 20 3 8 0 15 -7 15 -6 0 -8 5 -5 10 8 13 -4 52 -14 46
-4 -3 -8 1 -8 9 0 8 5 11 11 8 6 -4 5 0 -1 9 -7 8 -10 18 -6 21 3 4 1 7 -6 7
-7 0 -10 4 -6 9 3 5 1 12 -4 16 -6 3 -7 13 -4 22 4 11 3 14 -5 9 -8 -5 -10 -2
-6 8 4 10 1 16 -7 16 -7 0 -10 3 -6 6 3 4 0 19 -9 35 -8 16 -15 32 -17 36 -1
5 -5 7 -9 6 -4 -2 -5 4 -2 12 4 9 0 23 -7 32 -8 9 -14 19 -14 22 0 3 -4 5 -9
3 -5 -2 -4 3 3 11 9 12 9 16 -2 20 -7 3 -19 24 -26 48 -7 24 -22 54 -32 67
-10 14 -16 28 -13 33 3 5 1 9 -4 9 -5 0 -13 8 -16 18 -12 33 -33 62 -40 55 -4
-4 -4 0 -1 8 3 9 -1 22 -10 29 -8 7 -15 18 -15 26 0 7 -9 18 -20 24 -11 6 -19
14 -18 18 3 15 -26 62 -39 62 -7 0 -13 9 -13 20 0 11 -3 19 -8 17 -4 -1 -7 0
-8 3 -1 3 -46 50 -100 105 -54 55 -97 104 -96 108 1 5 -2 6 -8 2 -5 -3 -10 -2
-10 4 0 5 -9 13 -20 16 -11 4 -18 10 -16 14 3 4 -4 13 -16 20 -16 10 -19 10
-13 -1 5 -7 -10 6 -33 28 -22 23 -43 40 -45 38 -2 -2 -17 8 -34 23 -16 16 -36
29 -43 31 -8 2 -19 10 -25 19 -7 9 -20 18 -30 19 -10 2 -22 10 -27 18 -5 9
-16 16 -23 16 -8 0 -15 5 -15 12 0 6 -3 9 -6 5 -3 -3 -29 10 -56 30 -28 19
-47 30 -43 23 5 -8 0 -7 -13 1 -12 7 -18 17 -15 22 3 4 -1 8 -8 6 -25 -3 -40
1 -35 9 2 4 -7 9 -20 10 -14 1 -34 6 -44 12 -13 7 -21 7 -26 -1 -5 -8 -9 -8
-14 1 -4 7 -19 13 -34 13 -14 0 -26 3 -26 8 0 5 -13 9 -30 9 -17 0 -30 5 -30
13 0 8 -4 7 -10 -3 -5 -8 -10 -10 -10 -4 0 16 -46 23 -60 10 -8 -8 -11 -7 -8
4 2 11 -5 15 -24 14 -16 0 -28 4 -28 9 0 5 -7 7 -15 3 -8 -3 -15 -1 -15 5 0 6
-7 9 -15 5 -8 -3 -15 -1 -15 4 0 5 -7 7 -15 4 -8 -4 -22 -1 -30 6 -8 7 -15 9
-15 5 0 -4 -8 -1 -17 6 -11 10 -14 10 -9 2 9 -16 5 -16 -28 -3 -17 6 -26 6
-26 0 0 -6 -5 -10 -11 -10 -5 0 -7 5 -4 10 7 11 2 14 -7 4z m1127 -3684 c0
-22 -2 -40 -5 -40 -4 0 -5 -17 -3 -37 3 -33 2 -35 -7 -15 -5 13 -14 21 -19 17
-13 -7 -6 27 10 57 7 13 14 28 15 33 5 39 9 32 9 -15z m-339 -289 c-4 -5 -1
-11 6 -13 8 -3 6 -6 -4 -10 -11 -5 -15 -2 -13 10 5 23 4 22 11 22 3 0 3 -4 0
-9z m9 -41 c-3 -5 -12 -10 -18 -10 -7 0 -6 4 3 10 19 12 23 12 15 0z m1 -46
c1 -9 0 -13 -4 -10 -3 4 -7 14 -8 22 -1 9 0 13 4 10 3 -4 7 -14 8 -22z m224
-190 c0 -8 -19 -13 -24 -6 -3 5 1 9 9 9 8 0 15 -2 15 -3z m991 -1088 c11 6 11
2 3 -20 -3 -9 -11 -13 -16 -10 -6 4 -9 1 -6 -7 3 -8 -2 -20 -11 -27 -13 -11
-13 -12 -1 -6 12 6 13 4 3 -6 -19 -20 -28 -4 -14 23 7 13 14 32 16 42 5 30 6
31 12 17 2 -6 9 -10 14 -6z m-3628 -326 c-3 -11 -9 -17 -14 -15 -10 7 -1 35
11 35 5 0 6 -9 3 -20z m-278 -250 c-3 -5 -12 -10 -18 -10 -7 0 -6 4 3 10 19
12 23 12 15 0z m2255 -182 c0 -10 -17 -10 -24 0 -3 5 1 9 9 9 8 0 15 -4 15 -9z"/>
</g>
</svg>
